<?xml version="1.0" standalone="no"?>
<!DOCTYPE svg PUBLIC "-//W3C//DTD SVG 20010904//EN"
 "http://www.w3.org/TR/2001/REC-SVG-20010904/DTD/svg10.dtd">
<svg version="1.0" xmlns="http://www.w3.org/2000/svg"
 width="260.000000pt" height="260.000000pt" viewBox="0 0 260.000000 260.000000"
 preserveAspectRatio="xMidYMid meet">
<metadata>
Created by potrace 1.11, written by Peter Selinger 2001-2013
</metadata>
<g transform="translate(0.000000,260.000000) scale(0.100000,-0.100000)"
fill="#000000" stroke="none">
<path d="M526 2426 c-49 -127 -61 -199 -59 -341 1 -110 30 -232 80 -337 22
-47 33 -84 29 -94 -8 -21 -9 -197 -1 -239 17 -86 29 -124 59 -189 43 -92 74
-138 144 -209 228 -233 586 -287 870 -131 68 37 135 87 177 132 23 24 25 25
80 14 120 -24 195 -93 199 -181 3 -66 -31 -152 -76 -193 -106 -96 -306 -109
-554 -35 -27 8 -125 44 -219 80 -201 77 -256 94 -350 112 -210 39 -428 -34
-481 -162 -30 -69 -12 -161 48 -251 41 -63 40 -66 -22 -65 -30 0 -59 -2 -64
-5 -5 -3 32 -19 81 -37 118 -42 186 -76 251 -125 51 -39 52 -39 52 -15 0 46
-133 366 -146 352 -3 -3 -7 -28 -9 -57 -2 -28 -6 -54 -9 -57 -8 -8 -36 67 -40
109 -6 60 10 102 55 143 64 57 122 80 204 78 74 -1 92 -6 515 -151 273 -94
308 -101 460 -98 144 3 224 25 302 82 142 102 172 320 63 442 -45 50 -150 109
-211 119 -19 3 -34 7 -34 8 0 1 17 40 39 86 34 74 49 119 66 209 8 35 7 204 0
233 -5 17 3 44 23 83 105 211 115 490 24 694 -18 38 -21 41 -22 20 -5 -78 -36
-181 -80 -270 -33 -66 -101 -160 -115 -160 -5 0 -23 14 -40 32 -150 155 -398
237 -616 204 -90 -13 -105 -17 -179 -49 -91 -39 -171 -92 -225 -146 -22 -22
-44 -41 -50 -41 -13 0 -81 93 -111 152 -45 89 -65 153 -82 258 l-7 45 -19 -49z"/>
</g>
</svg>
