<svg id="Layer_1" xmlns="http://www.w3.org/2000/svg" viewBox="0 0 100 100"><style>.st0{fill:#c31}</style><path class="st0" d="M21 5c-2 4.2-3.1 8.9-3.1 13.9 0 6 1.7 11.7 4.5 16.5-.4 1.9-.6 3.8-.6 5.8 0 15.6 12.6 28.2 28.2 28.2 8.3 0 15.8-3.6 21-9.4 1.1.1 2.1.2 3 .5 8 2 7.9 7.6 6.1 11.6-2.8 6.3-11.6 7-19.9 5.1-12.7-2.9-25.1-12.3-37.5-7.5-10.3 4-7.3 11.9-2.7 17.6-2.9-.1-5.9 0-5.8.2 2 .8 10.2 2.7 15.4 7.7.4-3.4-5.7-14.8-5.7-14.8s-.5 3.3-.3 5.5c-2.1-2.9-3-7.3-.4-10.1 6.7-6.9 13.9-2.3 23.8.8 9 2.8 15.3 6.4 24.8 5.3 6.9-.8 10.8-3.5 12.9-8.1 1.8-3.9 1.3-9.8-2-12.6-2.6-2.3-5.8-3.8-9.3-4.4 3-4.5 4.7-9.8 4.7-15.6 0-2-.2-3.9-.6-5.8 2.9-4.8 4.5-10.5 4.5-16.5 0-5-1.1-9.7-3.1-13.9-.5 6.8-3.3 13-7.7 17.7C66.1 16.8 58.5 13 50 13s-16.1 3.8-21.3 9.7C24.3 18 21.5 11.8 21 5z"/></svg>