<?xml version="1.0" encoding="utf-8"?>
<!-- Generator: Adobe Illustrator 19.2.1, SVG Export Plug-In . SVG Version: 6.00 Build 0)  -->
<svg version="1.1"
	 id="Layer_1" xmlns:cc="http://creativecommons.org/ns#" xmlns:dc="http://purl.org/dc/elements/1.1/" xmlns:rdf="http://www.w3.org/1999/02/22-rdf-syntax-ns#" xmlns:svg="http://www.w3.org/2000/svg"
	 xmlns="http://www.w3.org/2000/svg" xmlns:xlink="http://www.w3.org/1999/xlink" x="0px" y="0px" viewBox="0 0 100 100"
	 style="enable-background:new 0 0 100 100;" xml:space="preserve">
<style type="text/css">
	.st0{fill:#CC3311;}
</style>
<path class="st0" d="M21,5c-2,4.2-3.1,8.9-3.1,13.9c0,6,1.7,11.7,4.5,16.5c-0.4,1.9-0.6,3.8-0.6,5.8c0,15.6,12.6,28.2,28.2,28.2
	c8.3,0,15.8-3.6,21-9.4c1.1,0.1,2.1,0.2,3,0.5c8,2,7.9,7.6,6.1,11.6c-2.8,6.3-11.6,7-19.9,5.1c-12.7-2.9-25.1-12.3-37.5-7.5
	c-10.3,4-7.3,11.9-2.7,17.6c-2.9-0.1-5.9,0-5.8,0.2c2,0.8,10.2,2.7,15.4,7.7c0.4-3.4-5.7-14.8-5.7-14.8s-0.5,3.3-0.3,5.5
	c-2.1-2.9-3-7.3-0.4-10.1c6.7-6.9,13.9-2.3,23.8,0.8c9,2.8,15.3,6.4,24.8,5.3c6.9-0.8,10.8-3.5,12.9-8.1c1.8-3.9,1.3-9.8-2-12.6
	c-2.6-2.3-5.8-3.8-9.3-4.4c3-4.5,4.7-9.8,4.7-15.6c0-2-0.2-3.9-0.6-5.8c2.9-4.8,4.5-10.5,4.5-16.5c0-5-1.1-9.7-3.1-13.9
	c-0.5,6.8-3.3,13-7.7,17.7C66.1,16.8,58.5,13,50,13c-8.5,0-16.1,3.8-21.3,9.7C24.3,18,21.5,11.8,21,5z"/>
</svg>
